name rise44.8762peak52.3436fall86.788.mot
datacolumns 19
datarows 15
range 21.70159300000000 21.72491100000000
endheader
time	ground_force1_vx	ground_force1_vy	ground_force1_vz	ground_force1_px	ground_force1_py	ground_force1_pz	ground_force2_vx	ground_force2_vy	ground_force2_vz	ground_force2_px	ground_force2_py	ground_force2_pz	ground_torque1_x	ground_torque1_y	ground_torque1_z	ground_torque2_x	ground_torque2_y	ground_torque2_z	
21.70159300000000	12.78822700000000	690.45686699999999	42.79971100000000	0.20060000000000	0.00000000000000	0.12759500000000	0.00000000000000	0.00000000000000	0.00000000000000	0.00000000000000	0.00000000000000	0.00000000000000	0.00000000000000	13.49364200000000	0.00000000000000	0.00000000000000	0.00000000000000	0.00000000000000	
21.70324600000000	12.39523300000000	691.61001599999997	42.86515400000000	0.19973700000000	0.00000000000000	0.12764000000000	0.00000000000000	0.00000000000000	0.00000000000000	0.00000000000000	0.00000000000000	0.00000000000000	0.00000000000000	13.56013300000000	0.00000000000000	0.00000000000000	0.00000000000000	0.00000000000000	
21.70491300000000	11.98969100000000	692.79274599999997	42.93685100000000	0.19885200000000	0.00000000000000	0.12768900000000	0.00000000000000	0.00000000000000	0.00000000000000	0.00000000000000	0.00000000000000	0.00000000000000	0.00000000000000	13.63227600000000	0.00000000000000	0.00000000000000	0.00000000000000	0.00000000000000	
21.70657800000000	11.57162800000000	694.00285399999996	43.01438500000000	0.19794400000000	0.00000000000000	0.12774100000000	0.00000000000000	0.00000000000000	0.00000000000000	0.00000000000000	0.00000000000000	0.00000000000000	0.00000000000000	13.70992100000000	0.00000000000000	0.00000000000000	0.00000000000000	0.00000000000000	
21.70824500000000	11.14111600000000	695.23823200000004	43.09735100000000	0.19701600000000	0.00000000000000	0.12779600000000	0.00000000000000	0.00000000000000	0.00000000000000	0.00000000000000	0.00000000000000	0.00000000000000	0.00000000000000	13.79291000000000	0.00000000000000	0.00000000000000	0.00000000000000	0.00000000000000	
21.70991600000000	10.69827100000000	696.49686999999994	43.18535700000000	0.19606700000000	0.00000000000000	0.12785400000000	0.00000000000000	0.00000000000000	0.00000000000000	0.00000000000000	0.00000000000000	0.00000000000000	0.00000000000000	13.88108700000000	0.00000000000000	0.00000000000000	0.00000000000000	0.00000000000000	
21.71159000000000	10.24325200000000	697.77686200000005	43.27802300000000	0.19509900000000	0.00000000000000	0.12791600000000	0.00000000000000	0.00000000000000	0.00000000000000	0.00000000000000	0.00000000000000	0.00000000000000	0.00000000000000	13.97429000000000	0.00000000000000	0.00000000000000	0.00000000000000	0.00000000000000	
21.71325100000000	9.77625800000000	699.07640700000002	43.37498600000000	0.19411300000000	0.00000000000000	0.12797900000000	0.00000000000000	0.00000000000000	0.00000000000000	0.00000000000000	0.00000000000000	0.00000000000000	0.00000000000000	14.07235600000000	0.00000000000000	0.00000000000000	0.00000000000000	0.00000000000000	
21.71491700000000	9.29753200000000	700.39380900000003	43.47589600000000	0.19311100000000	0.00000000000000	0.12804600000000	0.00000000000000	0.00000000000000	0.00000000000000	0.00000000000000	0.00000000000000	0.00000000000000	0.00000000000000	14.17512100000000	0.00000000000000	0.00000000000000	0.00000000000000	0.00000000000000	
21.71658200000000	8.80735200000000	701.72748400000000	43.58042000000000	0.19209400000000	0.00000000000000	0.12811400000000	0.00000000000000	0.00000000000000	0.00000000000000	0.00000000000000	0.00000000000000	0.00000000000000	0.00000000000000	14.28241700000000	0.00000000000000	0.00000000000000	0.00000000000000	0.00000000000000	
21.71824900000000	8.30603300000000	703.07595200000003	43.68824400000000	0.19106300000000	0.00000000000000	0.12818500000000	0.00000000000000	0.00000000000000	0.00000000000000	0.00000000000000	0.00000000000000	0.00000000000000	0.00000000000000	14.39407500000000	0.00000000000000	0.00000000000000	0.00000000000000	0.00000000000000	
21.71991800000000	7.79392600000000	704.43784500000004	43.79906900000000	0.19002000000000	0.00000000000000	0.12825700000000	0.00000000000000	0.00000000000000	0.00000000000000	0.00000000000000	0.00000000000000	0.00000000000000	0.00000000000000	14.50992400000000	0.00000000000000	0.00000000000000	0.00000000000000	0.00000000000000	
21.72158600000000	7.27141200000000	705.81190300000003	43.91261500000000	0.18896700000000	0.00000000000000	0.12833100000000	0.00000000000000	0.00000000000000	0.00000000000000	0.00000000000000	0.00000000000000	0.00000000000000	0.00000000000000	14.62979300000000	0.00000000000000	0.00000000000000	0.00000000000000	0.00000000000000	
21.72324900000000	6.73890500000000	707.19697599999995	44.02862100000000	0.18790400000000	0.00000000000000	0.12840700000000	0.00000000000000	0.00000000000000	0.00000000000000	0.00000000000000	0.00000000000000	0.00000000000000	0.00000000000000	14.75350700000000	0.00000000000000	0.00000000000000	0.00000000000000	0.00000000000000	
21.72491100000000	6.19684500000000	708.59201599999994	44.14684500000000	0.18683400000000	0.00000000000000	0.12848400000000	0.00000000000000	0.00000000000000	0.00000000000000	0.00000000000000	0.00000000000000	0.00000000000000	0.00000000000000	14.88089100000000	0.00000000000000	0.00000000000000	0.00000000000000	0.00000000000000	
